<?xml version="1.0" encoding="utf-8"?>
<!-- Generator: Adobe Illustrator 21.0.2, SVG Export Plug-In . SVG Version: 6.00 Build 0)  -->
<svg version="1.1" id="Layer_1" xmlns="http://www.w3.org/2000/svg" xmlns:xlink="http://www.w3.org/1999/xlink" x="0px" y="0px"
	 viewBox="0 0 100 125" style="enable-background:new 0 0 100 125;" xml:space="preserve">
<style type="text/css">
	.st0{fill:#F9CB0B;}
</style>
<g>
	<path class="st0" d="M84.1,31.4v-0.1l0.6-10.8c0-0.4-0.1-0.9-0.4-1.2c-0.3-0.3-0.7-0.5-1.2-0.4l-10.8,0.7c-0.1,0-0.2,0-0.4,0.1
		c-2.7-1.8-5.6-3.4-8.8-4.8C53.7,10.7,42.3,6,37.2,5.1C36.5,5,35.9,5,35.4,5c-2.8,0.4-6,5.3-10.9,13.4c-2.1,3.4-4.1,6.7-5.5,8.3
		C12.4,34.2,8.8,43.8,8.8,53.8c0,0.3,0,0.7,0,1v2.5c0,0.1,0,0.2,0,0.3v35.8c0,0.1,0,0.1,0,0.1c0,0.2,0.1,0.3,0.1,0.5
		c0.1,0.3,0.4,0.6,0.8,0.8C9.9,95,10.1,95,10.3,95c0.4,0,0.8-0.2,1.1-0.4L22,84c7.6,7.1,17.5,11,28,11c18.6,0,34.4-12.4,39.5-29.4
		c0.1-0.1,0.1-0.2,0.1-0.4c0.9-3,1.4-6.1,1.6-9.2c0.1-0.7,0.1-1.4,0.1-2.2C91.2,45.6,88.7,38,84.1,31.4z M81.6,21.9l-0.3,5.9
		c-1.7-1.9-3.6-3.8-5.7-5.5L81.6,21.9z M23,68.9v9.8l-2.2,2.2l-4.5,4.5l-4.5,4.5V57.4C12,49.9,18.1,44,25.5,44h15.9
		c3.3,0,5.4,2.2,6.2,4.2s0.9,5-1.5,7.4L38.7,63v-4.7c0-0.8-0.7-1.5-1.5-1.5s-1.5,0.7-1.5,1.5V66L26,75.7V69c0-0.8-0.7-1.5-1.5-1.5
		C23.7,67.4,23,68.1,23,68.9z M87.4,61.6C76.6,48.5,62.9,45.9,49.5,45.3c-1.8-2.7-4.7-4.4-8.1-4.4H25.5c-5.3,0-10.1,2.5-13.1,6.4
		c1.2-6.9,4.2-13.4,8.9-18.7c1.6-1.8,3.6-5.1,5.8-8.7c2.5-4.1,7.1-11.6,8.8-12c0.2,0,0.5,0,1,0.1c3,0.5,11.4,3.4,25,9.4
		c16.5,7.2,26.3,20.8,26.3,36.3c0,0.7,0,1.3-0.1,2C88,57.8,87.8,59.7,87.4,61.6z"/>
	<path class="st0" d="M64.8,22.4c-2.1,0-3.7,1.7-3.7,3.7c0,2.1,1.7,3.7,3.7,3.7c2.1,0,3.7-1.7,3.7-3.7C68.6,24,66.9,22.4,64.8,22.4z
		"/>
</g>
</svg>
